<svg xmlns="http://www.w3.org/2000/svg" xmlns:xlink="http://www.w3.org/1999/xlink" width="1920" zoomAndPan="magnify" viewBox="0 0 1440 809.999993" height="1080" preserveAspectRatio="xMidYMid meet" version="1.0"><defs><g/></defs><g fill="#ffffff" fill-opacity="1"><g transform="translate(249.88348, 329.255862)"><g><path d="M 125.714844 -92.96875 C 130.296875 -100.527344 133.042969 -109.457031 133.042969 -119.074219 C 133.042969 -146.78125 110.375 -169.453125 82.664062 -169.453125 L 27.480469 -169.453125 C 18.546875 -169.453125 11.449219 -162.355469 11.449219 -153.421875 L 11.449219 -16.03125 C 11.449219 -7.097656 18.546875 0 27.480469 0 L 98.921875 0 C 126.632812 0 149.300781 -22.671875 149.300781 -50.378906 C 149.300781 -68.238281 139.914062 -84.039062 125.714844 -92.96875 Z M 82.664062 -137.394531 C 92.742188 -137.394531 100.984375 -129.148438 100.984375 -119.074219 C 100.984375 -109 92.742188 -100.753906 82.664062 -100.753906 L 43.507812 -100.753906 L 43.507812 -137.394531 Z M 98.921875 -32.058594 L 43.507812 -32.058594 L 43.507812 -68.695312 L 98.921875 -68.695312 C 109 -68.695312 117.242188 -60.453125 117.242188 -50.378906 C 117.242188 -40.300781 109 -32.058594 98.921875 -32.058594 Z M 98.921875 -32.058594 "/></g></g></g><g fill="#ffffff" fill-opacity="1"><g transform="translate(451.395068, 329.255862)"><g><path d="M 139.226562 -21.753906 L 86.328125 -159.148438 C 84.039062 -165.332031 78.085938 -169.453125 71.445312 -169.453125 C 64.804688 -169.453125 58.851562 -165.332031 56.332031 -159.148438 L 3.664062 -21.753906 C 0.457031 -13.511719 4.578125 -4.351562 12.824219 -1.144531 C 14.65625 -0.457031 16.714844 0 18.546875 0 C 24.960938 0 30.914062 -3.894531 33.433594 -10.304688 L 38.46875 -22.898438 L 104.417969 -22.898438 L 109.226562 -10.304688 C 111.746094 -3.894531 117.699219 0 124.339844 0 C 126.171875 0 128.003906 -0.230469 130.066406 -1.144531 C 138.308594 -4.351562 142.433594 -13.511719 139.226562 -21.753906 Z M 50.605469 -54.957031 L 71.445312 -108.769531 L 92.054688 -54.957031 Z M 50.605469 -54.957031 "/></g></g></g><g fill="#ffffff" fill-opacity="1"><g transform="translate(641.686138, 329.255862)"><g><path d="M 138.308594 -0.914062 C 144.722656 -2.976562 149.300781 -9.160156 149.300781 -16.03125 L 149.300781 -153.421875 C 149.300781 -162.355469 141.972656 -169.453125 133.273438 -169.453125 C 124.339844 -169.453125 117.242188 -162.355469 117.242188 -153.421875 L 117.242188 -63.203125 L 40.074219 -163.269531 C 37.097656 -167.164062 32.289062 -169.453125 27.480469 -169.453125 C 18.546875 -169.453125 11.449219 -162.355469 11.449219 -153.421875 L 11.449219 -16.03125 C 11.449219 -7.097656 18.546875 0 27.480469 0 C 36.410156 0 43.507812 -7.097656 43.507812 -16.03125 L 43.507812 -106.25 L 120.449219 -6.183594 C 123.65625 -2.289062 128.234375 0 133.273438 0 C 134.875 0 136.707031 -0.230469 138.308594 -0.914062 Z M 138.308594 -0.914062 "/></g></g></g><g fill="#ffffff" fill-opacity="1"><g transform="translate(850.06738, 329.255862)"><g><path d="M 113.351562 -169.453125 L 18.320312 -169.453125 C 9.386719 -169.453125 2.289062 -162.355469 2.289062 -153.421875 C 2.289062 -144.492188 9.386719 -137.394531 18.320312 -137.394531 L 49.917969 -137.394531 L 49.917969 -16.03125 C 49.917969 -7.097656 57.019531 0 65.949219 0 C 74.652344 0 81.976562 -7.097656 81.976562 -16.03125 L 81.976562 -137.394531 L 113.351562 -137.394531 C 122.28125 -137.394531 129.378906 -144.492188 129.378906 -153.421875 C 129.378906 -162.355469 122.28125 -169.453125 113.351562 -169.453125 Z M 113.351562 -169.453125 "/></g></g></g><g fill="#ffffff" fill-opacity="1"><g transform="translate(1029.366991, 329.255862)"><g><path d="M 149.300781 -68.925781 L 149.300781 -153.421875 C 149.300781 -162.355469 141.972656 -169.453125 133.273438 -169.453125 C 124.339844 -169.453125 117.242188 -162.355469 117.242188 -153.421875 L 117.242188 -68.925781 C 117.242188 -48.546875 100.527344 -32.058594 80.375 -32.058594 C 59.996094 -32.058594 43.507812 -48.546875 43.507812 -68.925781 L 43.507812 -153.421875 C 43.507812 -162.355469 36.410156 -169.453125 27.480469 -169.453125 C 18.546875 -169.453125 11.449219 -162.355469 11.449219 -153.421875 L 11.449219 -68.925781 C 11.449219 -30.914062 42.363281 0 80.375 0 C 118.386719 0 149.300781 -30.914062 149.300781 -68.925781 Z M 149.300781 -68.925781 "/></g></g></g><g fill="#ffffff" fill-opacity="1"><g transform="translate(164.805356, 578.255849)"><g><path d="M 191.4375 -16.03125 L 191.4375 -153.421875 C 191.4375 -160.75 186.398438 -167.164062 179.300781 -168.996094 C 177.925781 -169.222656 176.78125 -169.453125 175.40625 -169.453125 C 169.679688 -169.453125 164.1875 -166.246094 161.4375 -160.980469 L 101.441406 -49.917969 L 41.675781 -160.980469 C 38.699219 -166.246094 33.203125 -169.453125 27.480469 -169.453125 C 26.105469 -169.453125 24.960938 -169.222656 23.585938 -168.996094 C 16.488281 -167.164062 11.449219 -160.75 11.449219 -153.421875 L 11.449219 -16.03125 C 11.449219 -7.097656 18.546875 0 27.480469 0 C 36.410156 0 43.507812 -7.097656 43.507812 -16.03125 L 43.507812 -89.765625 L 87.246094 -8.472656 C 90.222656 -3.207031 95.488281 0 101.441406 0 C 107.394531 0 112.664062 -3.207031 115.640625 -8.472656 L 159.378906 -89.765625 L 159.378906 -16.03125 C 159.378906 -7.097656 166.476562 0 175.40625 0 C 184.335938 0 191.4375 -7.097656 191.4375 -16.03125 Z M 191.4375 -16.03125 "/></g></g></g><g fill="#ffffff" fill-opacity="1"><g transform="translate(415.549648, 578.255849)"><g><path d="M 101.441406 -32.058594 L 43.507812 -32.058594 L 43.507812 -68.695312 L 80.375 -68.695312 C 89.078125 -68.695312 96.40625 -75.796875 96.40625 -84.726562 C 96.40625 -93.65625 89.078125 -100.753906 80.375 -100.753906 L 43.507812 -100.753906 L 43.507812 -137.394531 L 101.441406 -137.394531 C 110.375 -137.394531 117.472656 -144.492188 117.472656 -153.421875 C 117.472656 -162.355469 110.375 -169.453125 101.441406 -169.453125 L 27.480469 -169.453125 C 18.546875 -169.453125 11.449219 -162.355469 11.449219 -153.421875 L 11.449219 -16.03125 C 11.449219 -7.097656 18.546875 0 27.480469 0 L 101.441406 0 C 110.375 0 117.472656 -7.097656 117.472656 -16.03125 C 117.472656 -24.960938 110.375 -32.058594 101.441406 -32.058594 Z M 101.441406 -32.058594 "/></g></g></g><g fill="#ffffff" fill-opacity="1"><g transform="translate(585.460662, 578.255849)"><g><path d="M 95.488281 -70.300781 C 117.015625 -76.023438 133.042969 -95.71875 133.042969 -119.074219 C 133.042969 -146.78125 110.375 -169.453125 82.664062 -169.453125 L 27.480469 -169.453125 C 18.546875 -169.453125 11.449219 -162.355469 11.449219 -153.421875 L 11.449219 -16.03125 C 11.449219 -7.097656 18.546875 0 27.480469 0 C 36.410156 0 43.507812 -7.097656 43.507812 -16.03125 L 43.507812 -68.695312 L 56.332031 -68.695312 L 104.191406 -6.183594 C 107.394531 -2.0625 112.207031 0 117.015625 0 C 120.449219 0 123.882812 -1.144531 126.859375 -3.433594 C 133.730469 -8.703125 135.105469 -18.777344 129.609375 -25.875 Z M 43.507812 -137.394531 L 82.664062 -137.394531 C 92.742188 -137.394531 100.984375 -129.148438 100.984375 -119.074219 C 100.984375 -109 92.742188 -100.753906 82.664062 -100.753906 L 43.507812 -100.753906 Z M 43.507812 -137.394531 "/></g></g></g><g fill="#ffffff" fill-opacity="1"><g transform="translate(774.148825, 578.255849)"><g><path d="M 101.441406 -32.058594 L 43.507812 -32.058594 L 43.507812 -68.695312 L 80.375 -68.695312 C 89.078125 -68.695312 96.40625 -75.796875 96.40625 -84.726562 C 96.40625 -93.65625 89.078125 -100.753906 80.375 -100.753906 L 43.507812 -100.753906 L 43.507812 -137.394531 L 101.441406 -137.394531 C 110.375 -137.394531 117.472656 -144.492188 117.472656 -153.421875 C 117.472656 -162.355469 110.375 -169.453125 101.441406 -169.453125 L 27.480469 -169.453125 C 18.546875 -169.453125 11.449219 -162.355469 11.449219 -153.421875 L 11.449219 -16.03125 C 11.449219 -7.097656 18.546875 0 27.480469 0 L 101.441406 0 C 110.375 0 117.472656 -7.097656 117.472656 -16.03125 C 117.472656 -24.960938 110.375 -32.058594 101.441406 -32.058594 Z M 101.441406 -32.058594 "/></g></g></g><g fill="#ffffff" fill-opacity="1"><g transform="translate(944.059892, 578.255849)"><g><path d="M 134.875 -26.332031 L 84.269531 -86.328125 L 120.21875 -144.949219 C 124.800781 -152.507812 122.28125 -162.582031 114.722656 -167.164062 C 112.207031 -168.765625 109.226562 -169.453125 106.480469 -169.453125 C 100.984375 -169.453125 95.71875 -166.703125 92.742188 -161.667969 L 55.414062 -100.753906 L 43.507812 -100.753906 L 43.507812 -153.421875 C 43.507812 -162.355469 36.410156 -169.453125 27.480469 -169.453125 C 18.546875 -169.453125 11.449219 -162.355469 11.449219 -153.421875 L 11.449219 -16.03125 C 11.449219 -7.097656 18.546875 0 27.480469 0 C 36.410156 0 43.507812 -7.097656 43.507812 -16.03125 L 43.507812 -68.695312 L 57.019531 -68.695312 L 110.375 -5.726562 C 113.578125 -1.832031 118.160156 0 122.507812 0 C 126.171875 0 129.835938 -1.144531 133.042969 -3.894531 C 139.683594 -9.617188 140.601562 -19.691406 134.875 -26.332031 Z M 134.875 -26.332031 "/></g></g></g><g fill="#ffffff" fill-opacity="1"><g transform="translate(1132.51908, 578.255849)"><g><path d="M 139.226562 -21.753906 L 86.328125 -159.148438 C 84.039062 -165.332031 78.085938 -169.453125 71.445312 -169.453125 C 64.804688 -169.453125 58.851562 -165.332031 56.332031 -159.148438 L 3.664062 -21.753906 C 0.457031 -13.511719 4.578125 -4.351562 12.824219 -1.144531 C 14.65625 -0.457031 16.714844 0 18.546875 0 C 24.960938 0 30.914062 -3.894531 33.433594 -10.304688 L 38.46875 -22.898438 L 104.417969 -22.898438 L 109.226562 -10.304688 C 111.746094 -3.894531 117.699219 0 124.339844 0 C 126.171875 0 128.003906 -0.230469 130.066406 -1.144531 C 138.308594 -4.351562 142.433594 -13.511719 139.226562 -21.753906 Z M 50.605469 -54.957031 L 71.445312 -108.769531 L 92.054688 -54.957031 Z M 50.605469 -54.957031 "/></g></g></g></svg>