<svg xmlns="http://www.w3.org/2000/svg" xmlns:xlink="http://www.w3.org/1999/xlink" width="5000" zoomAndPan="magnify" viewBox="0 0 3750 3749.999967" height="5000" preserveAspectRatio="xMidYMid meet" version="1.0"><defs><g/></defs><g fill="#ffffff" fill-opacity="1"><g transform="translate(-3.977308, 2712.745687)"><g><path d="M 1287.035156 -951.796875 C 1333.917969 -1029.15625 1362.050781 -1120.585938 1362.050781 -1219.046875 C 1362.050781 -1502.710938 1129.964844 -1734.800781 846.300781 -1734.800781 L 281.320312 -1734.800781 C 189.890625 -1734.800781 117.214844 -1662.125 117.214844 -1570.695312 L 117.214844 -164.101562 C 117.214844 -72.675781 189.890625 0 281.320312 0 L 1012.746094 0 C 1296.410156 0 1528.5 -232.089844 1528.5 -515.75 C 1528.5 -698.609375 1432.382812 -860.367188 1287.035156 -951.796875 Z M 846.300781 -1406.59375 C 949.449219 -1406.59375 1033.847656 -1322.199219 1033.847656 -1219.046875 C 1033.847656 -1115.898438 949.449219 -1031.503906 846.300781 -1031.503906 L 445.421875 -1031.503906 L 445.421875 -1406.59375 Z M 1012.746094 -328.207031 L 445.421875 -328.207031 L 445.421875 -703.296875 L 1012.746094 -703.296875 C 1115.898438 -703.296875 1200.292969 -618.902344 1200.292969 -515.75 C 1200.292969 -412.601562 1115.898438 -328.207031 1012.746094 -328.207031 Z M 1012.746094 -328.207031 "/></g></g></g><g fill="#ffffff" fill-opacity="1"><g transform="translate(1674.555589, 2712.745687)"><g><path d="M 1959.855469 -164.101562 L 1959.855469 -1570.695312 C 1959.855469 -1645.714844 1908.277344 -1711.355469 1835.605469 -1730.109375 C 1821.539062 -1732.453125 1809.816406 -1734.800781 1795.75 -1734.800781 C 1737.144531 -1734.800781 1680.878906 -1701.980469 1652.746094 -1648.058594 L 1038.535156 -511.0625 L 426.667969 -1648.058594 C 396.191406 -1701.980469 339.925781 -1734.800781 281.320312 -1734.800781 C 267.253906 -1734.800781 255.53125 -1732.453125 241.464844 -1730.109375 C 168.792969 -1711.355469 117.214844 -1645.714844 117.214844 -1570.695312 L 117.214844 -164.101562 C 117.214844 -72.675781 189.890625 0 281.320312 0 C 372.746094 0 445.421875 -72.675781 445.421875 -164.101562 L 445.421875 -918.976562 L 893.1875 -86.738281 C 923.664062 -32.820312 977.582031 0 1038.535156 0 C 1099.488281 0 1153.40625 -32.820312 1183.882812 -86.738281 L 1631.648438 -918.976562 L 1631.648438 -164.101562 C 1631.648438 -72.675781 1704.324219 0 1795.75 0 C 1887.179688 0 1959.855469 -72.675781 1959.855469 -164.101562 Z M 1959.855469 -164.101562 "/></g></g></g></svg>