<?xml version="1.0" encoding="utf-8"?>
<!-- Generator: Adobe Illustrator 21.1.0, SVG Export Plug-In . SVG Version: 6.00 Build 0)  -->
<svg version="1.1" id="Layer_1" xmlns="http://www.w3.org/2000/svg" xmlns:xlink="http://www.w3.org/1999/xlink" x="0px" y="0px"
	 viewBox="0 0 368.5 48" style="enable-background:new 0 0 368.5 48;" xml:space="preserve">
<style type="text/css">
	.erga{fill:#FFFFFF;}
</style>


<path class="erga" d="M41.4,32.6c0,1.5-0.4,3.1-1.1,4.8c-0.7,1.7-1.9,3.4-3.4,5.1c-1.6,1.7-3.6,3-6,4c-2.4,1-5.3,1.6-8.5,1.6
	c-2.4,0-4.7-0.2-6.7-0.7c-2-0.5-3.8-1.2-5.5-2.2c-1.6-1-3.1-2.3-4.5-3.9c-1.2-1.5-2.3-3.1-3.1-4.9s-1.5-3.7-1.9-5.8
	c-0.4-2-0.6-4.2-0.6-6.5c0-3.7,0.5-7.1,1.6-10c1.1-3,2.6-5.5,4.7-7.6c2-2.1,4.4-3.7,7.1-4.8C16.2,0.5,19.1,0,22.1,0
	c3.8,0,7.1,0.7,10,2.2s5.2,3.4,6.7,5.6c1.6,2.2,2.3,4.3,2.3,6.3c0,1.1-0.4,2-1.1,2.9c-0.8,0.8-1.7,1.2-2.8,1.2
	c-1.2,0-2.1-0.3-2.7-0.9c-0.6-0.6-1.3-1.6-2-2.9c-1.2-2.3-2.7-4-4.3-5.2c-1.7-1.1-3.7-1.7-6.1-1.7c-3.9,0-6.9,1.5-9.2,4.4
	c-2.3,2.9-3.4,7.1-3.4,12.5c0,3.6,0.5,6.6,1.5,9c1,2.4,2.4,4.2,4.3,5.4c1.9,1.2,4,1.8,6.5,1.8c2.7,0,5-0.7,6.9-2s3.3-3.3,4.2-5.9
	c0.4-1.2,0.9-2.2,1.5-3c0.6-0.8,1.5-1.2,2.9-1.2c1.1,0,2.1,0.4,2.9,1.2C41,30.4,41.4,31.4,41.4,32.6z"/>

<path class="erga" d="M2657 10356 c-23 -11 -43 -24 -46 -31 -2 -6 -10 -12 -18 -13 -24 -4
-88 -46 -109 -73 -10 -13 -22 -24 -26 -24 -10 0 -105 -82 -105 -91 0 -5 -24
-33 -52 -63 -29 -30 -60 -62 -68 -73 -63 -78 -82 -105 -84 -119 -2 -9 -9 -22
-18 -28 -20 -15 -68 -99 -68 -119 0 -9 -6 -20 -14 -24 -18 -11 -68 -111 -61
-123 3 -5 0 -12 -6 -15 -14 -9 -50 -92 -54 -128 -2 -16 -8 -34 -13 -40 -13
-16 -43 -118 -37 -127 3 -4 -2 -21 -11 -38 -8 -17 -17 -55 -20 -84 -3 -29 -10
-64 -15 -78 -15 -40 -22 -170 -22 -390 1 -248 7 -339 26 -376 8 -16 12 -34 10
-41 -7 -18 38 -103 61 -115 11 -6 26 -17 33 -24 9 -9 70 -12 233 -12 182 -1
223 2 235 14 8 9 15 20 15 26 0 13 -50 101 -62 109 -5 3 -10 14 -12 25 -5 24
-47 117 -55 124 -4 3 -13 37 -20 75 -8 39 -17 75 -22 81 -5 6 -4 39 3 75 6 35
11 71 12 80 1 9 24 40 52 68 27 29 51 57 52 62 2 5 9 9 17 9 7 0 34 9 61 21
27 11 58 24 69 29 31 13 151 31 238 35 43 3 82 7 87 10 4 2 45 -3 91 -12 66
-13 89 -23 111 -45 47 -48 56 -82 45 -178 -5 -47 -13 -94 -17 -105 -20 -48
-38 -114 -33 -119 4 -3 -1 -14 -9 -23 -18 -22 -58 -116 -58 -137 0 -8 -4 -16
-9 -18 -13 -5 -61 -104 -61 -126 0 -10 -4 -22 -10 -28 -6 -6 -5 -17 5 -32 15
-21 20 -21 249 -20 128 0 239 4 246 8 28 18 72 115 74 165 1 22 5 46 10 53 24
39 26 741 2 781 -4 6 -9 40 -11 77 -3 36 -8 71 -13 78 -5 6 -12 37 -15 68 -3
31 -13 73 -23 93 -9 19 -14 38 -11 41 7 7 -30 115 -43 128 -6 6 -10 19 -10 31
0 24 -37 107 -51 116 -6 3 -12 18 -13 32 -4 30 -53 117 -66 117 -6 0 -10 7
-10 17 0 23 -58 111 -82 124 -10 5 -16 14 -13 19 8 13 -166 191 -202 206 -18
8 -33 19 -33 24 0 16 -91 70 -116 70 -13 0 -26 5 -29 10 -9 15 -35 12 -81 -9z
m116 -482 c14 -11 33 -22 42 -25 10 -4 20 -16 24 -27 4 -12 25 -47 48 -77 22
-30 41 -59 41 -65 1 -15 45 -109 54 -115 4 -3 15 -45 24 -93 15 -80 15 -90 1
-112 -19 -28 -54 -38 -154 -41 -119 -3 -223 -13 -250 -23 -14 -5 -55 -13 -92
-16 -37 -4 -70 -11 -73 -16 -10 -15 -101 -11 -114 5 -20 24 -6 115 28 184 17
35 29 67 26 72 -3 5 -1 11 5 15 13 8 80 112 80 124 0 4 16 26 37 47 20 21 44
51 53 66 9 15 45 50 81 77 69 53 91 57 139 20z"/>

<path class="erga" d="M3750 10356 c-7 -12 -18 -26 -25 -30 -16 -9 -46 -105 -38 -119 3 -5 1
-14 -4 -21 -13 -15 -34 -126 -26 -139 3 -5 1 -21 -4 -36 -12 -30 -22 -165 -27
-354 -2 -70 -6 -131 -8 -135 -10 -17 -5 -778 5 -790 7 -9 7 -17 -1 -26 -6 -8
-9 -16 -7 -18 2 -2 7 -64 11 -138 3 -74 9 -139 12 -144 3 -6 7 -36 8 -68 2
-34 9 -69 19 -83 9 -14 13 -31 11 -39 -3 -7 5 -25 18 -39 23 -25 24 -25 202
-26 99 0 185 4 191 9 17 14 3 171 -18 196 -6 7 -8 19 -5 26 5 13 -9 108 -20
137 -3 8 -7 46 -9 84 -2 39 -8 72 -12 75 -4 4 -8 29 -8 56 0 28 -3 84 -7 125
-12 139 -19 304 -19 490 -1 156 3 214 18 305 1 6 2 13 3 18 2 13 58 -21 79
-48 11 -14 25 -25 31 -25 6 0 12 -4 12 -10 3 -20 6 -26 37 -75 18 -27 39 -53
47 -58 9 -4 13 -12 10 -17 -6 -9 51 -110 69 -122 6 -4 11 -13 12 -20 0 -11 30
-71 63 -128 5 -8 21 -43 37 -77 15 -35 31 -63 36 -63 4 0 8 -9 8 -19 0 -24 37
-111 56 -132 8 -9 14 -20 12 -25 -3 -13 22 -85 39 -113 8 -13 16 -33 17 -45 4
-37 37 -126 47 -126 5 0 8 -10 7 -23 -2 -24 20 -115 32 -132 4 -5 10 -35 14
-65 4 -30 13 -68 20 -85 7 -16 17 -43 22 -60 15 -49 40 -55 239 -53 99 0 187
5 197 9 19 10 53 93 44 108 -4 5 -2 12 3 15 15 9 28 111 35 276 2 36 5 92 6
126 2 33 0 66 -4 73 -4 6 -3 18 3 25 10 12 8 639 -2 871 -2 50 -5 123 -5 163
-1 40 -4 78 -8 84 -4 7 -8 37 -9 67 -2 82 -24 233 -36 247 -6 7 -12 29 -14 48
-1 19 -12 51 -24 70 -26 41 -48 45 -236 45 -112 0 -133 -3 -153 -19 -21 -17
-21 -21 -11 -72 6 -29 15 -57 19 -63 4 -5 10 -38 14 -73 3 -35 11 -72 16 -83
6 -11 13 -47 15 -80 3 -33 9 -68 14 -77 4 -9 11 -50 15 -91 3 -40 9 -78 13
-84 3 -5 7 -37 9 -71 1 -33 5 -104 9 -156 10 -146 9 -290 -3 -302 -8 -8 -17 0
-32 26 -12 20 -26 36 -31 36 -5 0 -9 8 -9 19 0 23 -49 113 -67 124 -7 4 -13
15 -13 24 0 21 -59 123 -71 123 -5 0 -9 7 -9 16 0 21 -59 124 -71 124 -5 0 -9
7 -9 16 0 21 -57 116 -76 127 -8 4 -14 14 -14 22 0 19 -56 107 -75 118 -8 4
-15 15 -15 23 0 21 -55 100 -75 107 -8 4 -15 15 -15 25 0 10 -22 42 -50 71
-27 29 -50 56 -50 61 0 14 -94 90 -112 90 -9 0 -19 4 -23 9 -3 6 -68 10 -145
10 -134 0 -141 -1 -151 -22z"/>

<path class="erga" d="M5999 10356 c-3 -3 -34 -7 -69 -10 -35 -2 -86 -8 -114 -14 -27 -5
-78 -14 -112 -21 -35 -6 -63 -15 -63 -19 0 -5 -15 -8 -34 -8 -31 0 -82 -20
-146 -57 -25 -14 -65 -109 -54 -127 3 -5 0 -15 -6 -24 -17 -20 -39 -119 -33
-144 3 -11 1 -20 -5 -20 -11 0 -22 -52 -29 -130 -12 -139 0 -154 86 -109 33
18 76 46 94 63 18 17 50 40 71 51 22 11 52 32 67 48 15 15 32 27 39 27 13 0
89 37 110 54 16 13 94 33 145 38 l30 3 6 -85 c3 -47 2 -92 -2 -100 -13 -24
-28 -112 -22 -127 3 -7 1 -19 -5 -26 -9 -11 -17 -49 -27 -133 -2 -16 -9 -56
-15 -88 -6 -33 -8 -66 -5 -74 3 -8 1 -20 -4 -26 -10 -11 -20 -124 -26 -266 -1
-36 -4 -92 -5 -126 -2 -33 0 -66 4 -73 4 -6 2 -19 -4 -27 -9 -10 -11 -32 -6
-72 4 -31 9 -130 10 -219 2 -104 8 -168 15 -177 6 -7 9 -21 5 -29 -7 -21 15
-127 27 -127 5 0 9 -10 9 -23 0 -13 10 -33 23 -44 21 -20 32 -21 245 -20 248
1 262 4 262 60 0 18 -7 43 -16 55 -8 12 -13 26 -10 31 7 11 -25 124 -37 132
-6 4 -7 14 -4 21 6 17 -9 103 -25 135 -6 11 -8 25 -5 30 3 4 1 28 -4 53 -27
136 -40 335 -39 595 0 226 4 313 18 400 5 33 7 66 5 73 -3 7 -1 18 5 25 6 6
16 41 23 77 13 65 31 100 78 153 21 23 30 26 60 21 20 -3 53 -12 74 -20 20 -7
37 -11 37 -7 0 4 26 -18 58 -48 31 -31 65 -59 75 -62 9 -4 17 -13 17 -21 0
-18 59 -68 74 -63 6 2 16 13 22 25 6 12 18 30 26 39 24 27 58 100 58 123 0 11
4 20 9 20 13 0 40 86 46 147 5 48 2 55 -26 88 -17 19 -37 35 -44 35 -8 0 -20
7 -29 15 -20 21 -102 55 -131 55 -13 0 -26 4 -29 8 -6 9 -108 34 -122 30 -5
-1 -25 3 -44 10 -20 7 -65 15 -100 18 -92 8 -476 14 -482 8z"/>

<path class="erga" d="M7199 10356 c-6 -6 -11 -16 -11 -23 0 -6 -6 -17 -14 -23 -15 -13 -40
-103 -38 -136 0 -10 -3 -25 -9 -31 -5 -7 -12 -44 -14 -84 -3 -39 -7 -75 -10
-81 -6 -9 -9 -46 -22 -289 -18 -312 -1 -803 28 -821 6 -3 8 -15 5 -25 -7 -22
17 -118 34 -139 6 -8 9 -18 6 -24 -8 -12 29 -108 49 -128 8 -8 13 -19 10 -23
-7 -11 53 -120 66 -120 5 0 15 -15 22 -33 14 -32 79 -97 97 -97 6 0 10 -6 10
-14 0 -16 63 -61 108 -77 17 -6 32 -14 32 -19 0 -11 88 -43 119 -42 14 0 29
-5 33 -11 3 -6 39 -12 80 -13 40 -1 80 -5 89 -9 24 -9 237 23 273 41 17 9 42
18 56 20 30 6 90 41 108 63 7 9 17 16 22 16 16 0 100 76 100 90 0 8 9 19 20
25 20 11 73 93 77 119 1 8 6 17 12 20 10 7 56 108 57 126 0 6 8 27 17 48 10
20 20 59 24 85 3 26 10 52 14 58 10 12 24 112 39 274 6 58 8 260 5 455 -4 361
-10 478 -24 530 -5 17 -9 41 -9 55 -1 39 -13 93 -25 115 -6 11 -12 30 -13 42
-6 49 -73 110 -90 82 -4 -6 -10 -6 -18 0 -19 16 -286 12 -311 -5 -12 -8 -25
-11 -30 -7 -13 13 3 -98 18 -121 8 -12 15 -33 15 -46 0 -33 21 -112 34 -127 6
-7 8 -20 4 -29 -3 -8 0 -48 8 -87 24 -122 36 -264 36 -421 0 -56 5 -105 11
-112 6 -7 8 -18 5 -23 -6 -8 -16 -161 -20 -286 -1 -22 -4 -44 -7 -50 -7 -10
-21 -83 -24 -120 -1 -11 -14 -47 -29 -80 -16 -33 -30 -68 -31 -77 -2 -9 -12
-25 -22 -35 -10 -11 -34 -37 -53 -59 -28 -31 -53 -45 -115 -66 -48 -16 -92
-25 -110 -22 -67 11 -121 28 -136 43 -8 9 -33 32 -55 52 -34 30 -115 170 -119
204 -2 20 -28 120 -33 130 -3 5 -7 32 -9 59 -2 27 -7 65 -12 84 -6 19 -8 46
-5 61 3 15 1 52 -4 82 -5 30 -6 86 -2 124 4 39 3 75 -1 80 -4 6 -4 17 2 25 5
8 9 47 9 85 0 39 4 97 10 130 6 33 9 70 5 82 -3 12 -1 24 4 27 9 6 27 109 23
140 -1 10 2 24 7 30 12 16 34 116 27 123 -3 4 0 16 7 27 38 60 45 174 11 186
-32 12 -411 9 -423 -3z"/>
</svg>
